<svg width="1432" height="695" viewBox="0 0 1432 695" fill="none" xmlns="http://www.w3.org/2000/svg">
<path d="M626.406 394.839C623.268 394.839 620.62 393.932 618.462 392.117C616.353 390.254 615.299 387.826 615.299 384.835V299.284C615.299 296.685 615.936 294.282 617.211 292.075C618.535 289.868 620.301 288.127 622.508 286.852C624.715 285.528 627.118 284.866 629.717 284.866C631.973 284.866 634.081 285.332 636.043 286.263C638.054 287.195 639.721 288.495 641.045 290.162L672.75 330.032L704.822 290.162C706.097 288.544 707.715 287.269 709.677 286.337C711.639 285.356 713.723 284.866 715.93 284.866C718.578 284.866 721.005 285.528 723.212 286.852C725.419 288.127 727.16 289.892 728.435 292.148C729.759 294.355 730.421 296.758 730.421 299.357V384.835C730.421 387.826 729.342 390.254 727.185 392.117C725.076 393.932 722.452 394.839 719.314 394.839C716.175 394.839 713.527 393.932 711.369 392.117C709.26 390.254 708.206 387.826 708.206 384.835V319.439C697.613 332.484 689.374 341.973 683.49 347.907C681.969 349.428 680.253 350.58 678.34 351.365C676.477 352.1 674.613 352.468 672.75 352.468C669.023 352.468 665.712 351.095 662.819 348.349C659.778 345.406 656.174 341.532 652.006 336.726C647.837 331.871 643.007 326.084 637.514 319.366V384.835C637.514 387.826 636.435 390.254 634.277 392.117C632.169 393.932 629.545 394.839 626.406 394.839Z" fill="#484848"/>
<path d="M785.668 394.765C777.577 394.765 770.343 392.975 763.968 389.395C757.593 385.766 752.615 380.74 749.035 374.316C745.455 367.891 743.665 360.609 743.665 352.468C743.665 344.327 745.455 337.069 749.035 330.694C752.615 324.27 757.593 319.268 763.968 315.688C770.343 312.108 777.577 310.318 785.668 310.318C793.76 310.318 800.969 312.108 807.295 315.688C813.67 319.268 818.623 324.27 822.154 330.694C825.734 337.069 827.524 344.327 827.524 352.468C827.524 360.609 825.734 367.891 822.154 374.316C818.623 380.74 813.67 385.766 807.295 389.395C800.969 392.975 793.76 394.765 785.668 394.765ZM785.668 376.081C789.591 376.081 793.098 375.076 796.187 373.065C799.277 371.054 801.68 368.259 803.396 364.679C805.162 361.099 806.044 357.029 806.044 352.468C806.044 347.956 805.162 343.91 803.396 340.331C801.68 336.751 799.277 333.98 796.187 332.018C793.098 330.007 789.591 329.002 785.668 329.002C781.696 329.002 778.14 330.007 775.002 332.018C771.912 333.98 769.485 336.751 767.719 340.331C766.003 343.91 765.145 347.956 765.145 352.468C765.145 357.029 766.003 361.099 767.719 364.679C769.485 368.259 771.912 371.054 775.002 373.065C778.14 375.076 781.696 376.081 785.668 376.081Z" fill="#484848"/>
<path d="M856.951 340.257C857.049 334.764 858.153 329.738 860.262 325.177C862.37 320.616 865.435 317.012 869.457 314.364C873.478 311.666 878.259 310.318 883.801 310.318C892.726 310.318 897.189 313.751 897.189 320.616C897.189 322.431 896.821 324.123 896.086 325.692C895.35 327.261 894.296 328.512 892.923 329.444C891.549 330.326 889.956 330.694 888.141 330.547C886.278 330.449 884.831 330.4 883.801 330.4C877.279 330.4 871.884 331.552 867.618 333.857C863.351 336.162 861.291 339.938 861.439 345.186L856.951 340.257ZM861.439 384.908C861.439 387.802 860.409 390.18 858.349 392.044C856.289 393.907 853.764 394.839 850.772 394.839C847.732 394.839 845.182 393.907 843.122 392.044C841.062 390.18 840.032 387.802 840.032 384.908L839.959 319.439C839.959 316.595 840.989 314.364 843.048 312.745C845.108 311.078 847.683 310.244 850.772 310.244C853.813 310.244 856.338 311.078 858.349 312.745C860.36 314.364 861.365 316.595 861.365 319.439L861.439 384.908Z" fill="#484848"/>
<path d="M931.251 394.765C925.611 394.765 920.707 393.736 916.538 391.676C912.419 389.616 909.256 386.698 907.049 382.922C904.842 379.097 903.739 374.634 903.739 369.534C903.739 365.022 905.063 360.805 907.711 356.882C910.359 352.909 914.16 349.55 919.113 346.804C924.066 344.009 929.877 342.096 936.547 341.066C939.146 340.674 942.432 340.478 946.404 340.478C949.543 340.478 952.583 340.6 955.526 340.845C957.83 341.042 959.817 341.875 961.484 343.346C963.151 344.769 963.985 346.583 963.985 348.79C963.985 350.065 963.789 351.34 963.397 352.615C963.053 353.89 962.514 354.896 961.778 355.631C961.141 356.269 960.356 356.71 959.424 356.955C958.493 357.2 957.536 357.274 956.555 357.176C954.594 356.931 952.166 356.808 949.273 356.808C944.859 356.808 940.961 357.102 937.577 357.691C933.801 358.377 930.809 359.701 928.602 361.663C926.396 363.625 925.292 366.248 925.292 369.534C925.292 372.329 926.248 374.487 928.161 376.007C930.074 377.479 932.771 378.214 936.253 378.214C940.176 378.214 943.903 377.503 947.434 376.081C950.965 374.61 954.005 373.016 956.555 371.3C957.144 370.858 958.174 370.637 959.645 370.637C961.018 370.637 962.22 371.25 963.249 372.477C964.279 373.703 964.794 375.051 964.794 376.522C964.794 377.454 964.598 378.263 964.206 378.95C962.833 381.549 960.479 384.075 957.144 386.527C953.858 388.93 949.935 390.916 945.374 392.485C940.813 394.005 936.106 394.765 931.251 394.765ZM909.697 325.692C909.697 323.289 910.31 321.254 911.536 319.586C912.811 317.87 914.479 316.57 916.538 315.688C919.873 314.266 923.821 313.064 928.382 312.083C932.992 311.053 936.67 310.489 939.416 310.391C950.695 310.048 959.473 312.255 965.75 317.012C972.028 321.769 975.706 329.1 976.785 339.006C977.128 342.096 977.324 345.21 977.373 348.349C977.471 351.438 977.52 355.067 977.52 359.236V386.306C977.52 389.101 976.515 391.234 974.504 392.706C972.543 394.128 969.968 394.839 966.78 394.839C963.593 394.839 960.994 394.128 958.983 392.706C957.021 391.234 956.04 389.101 956.04 386.306V360.118C956.04 359.285 956.114 358.206 956.261 356.882C956.604 353.547 956.776 350.874 956.776 348.864C956.776 343.959 956.065 339.767 954.643 336.285C953.613 333.636 951.627 331.748 948.684 330.62C945.742 329.493 942.309 328.978 938.386 329.076C936.375 329.125 933.997 329.542 931.251 330.326C928.504 331.111 925.439 332.141 922.055 333.416C920.879 333.857 919.726 334.078 918.598 334.078C916.195 334.078 914.111 333.318 912.345 331.797C910.58 330.228 909.697 328.193 909.697 325.692Z" fill="#484848"/>
<path d="M1062.26 394.839C1059.18 394.839 1056.6 394.054 1054.54 392.485C1052.53 390.867 1051.53 388.635 1051.53 385.791V293.105C1051.53 290.26 1052.53 288.004 1054.54 286.337C1056.6 284.67 1059.18 283.836 1062.26 283.836C1065.35 283.836 1067.9 284.67 1069.92 286.337C1071.97 288.004 1073 290.26 1073 293.105V385.791C1073 388.635 1071.97 390.867 1069.92 392.485C1067.9 394.054 1065.35 394.839 1062.26 394.839ZM1058.95 362.84C1058.95 367.695 1057.7 372.575 1055.2 377.479C1052.7 382.383 1048.93 386.478 1043.87 389.763C1038.82 393.049 1032.69 394.692 1025.48 394.692C1018.42 394.741 1012.22 393.196 1006.87 390.057C1001.58 386.919 997.384 382.285 994.295 376.155C991.254 370.024 989.587 362.619 989.293 353.939C989.048 345.995 990.445 338.688 993.486 332.018C996.575 325.349 1000.92 320.077 1006.51 316.203C1012.1 312.279 1018.35 310.318 1025.26 310.318C1034.68 310.318 1042.23 313.04 1047.92 318.483C1053.66 323.877 1057.04 332.705 1058.07 344.965C1058.17 346.044 1057.9 347.172 1057.26 348.349C1056.67 349.526 1055.94 350.114 1055.06 350.114C1054.22 350.114 1053.41 349.918 1052.63 349.526C1051.89 349.084 1051.53 348.545 1051.53 347.907C1051.53 344.671 1050.67 341.606 1048.95 338.712C1047.28 335.77 1044.86 333.391 1041.67 331.577C1038.48 329.713 1034.75 328.781 1030.49 328.781C1026.96 328.781 1023.67 329.885 1020.63 332.092C1017.64 334.249 1015.24 337.216 1013.42 340.993C1011.66 344.72 1010.77 348.814 1010.77 353.277C1010.77 358.034 1011.56 362.227 1013.13 365.856C1014.74 369.485 1017.03 372.329 1019.97 374.389C1022.96 376.4 1026.44 377.405 1030.41 377.405C1034.58 377.405 1038.26 376.571 1041.45 374.904C1044.63 373.188 1047.09 370.907 1048.8 368.063C1050.57 365.169 1051.45 362.031 1051.45 358.647C1051.45 357.961 1051.77 357.397 1052.41 356.955C1053.09 356.514 1053.85 356.293 1054.69 356.293C1055.42 356.293 1056.11 356.685 1056.75 357.47C1057.39 358.206 1057.9 359.088 1058.29 360.118C1058.73 361.148 1058.95 362.055 1058.95 362.84Z" fill="#484848"/>
<path d="M1112.22 394.765C1106.58 394.765 1101.67 393.736 1097.5 391.676C1093.38 389.616 1090.22 386.698 1088.01 382.922C1085.81 379.097 1084.7 374.634 1084.7 369.534C1084.7 365.022 1086.03 360.805 1088.68 356.882C1091.32 352.909 1095.13 349.55 1100.08 346.804C1105.03 344.009 1110.84 342.096 1117.51 341.066C1120.11 340.674 1123.4 340.478 1127.37 340.478C1130.51 340.478 1133.55 340.6 1136.49 340.845C1138.8 341.042 1140.78 341.875 1142.45 343.346C1144.12 344.769 1144.95 346.583 1144.95 348.79C1144.95 350.065 1144.75 351.34 1144.36 352.615C1144.02 353.89 1143.48 354.896 1142.74 355.631C1142.11 356.269 1141.32 356.71 1140.39 356.955C1139.46 357.2 1138.5 357.274 1137.52 357.176C1135.56 356.931 1133.13 356.808 1130.24 356.808C1125.82 356.808 1121.93 357.102 1118.54 357.691C1114.77 358.377 1111.77 359.701 1109.57 361.663C1107.36 363.625 1106.26 366.248 1106.26 369.534C1106.26 372.329 1107.21 374.487 1109.13 376.007C1111.04 377.479 1113.74 378.214 1117.22 378.214C1121.14 378.214 1124.87 377.503 1128.4 376.081C1131.93 374.61 1134.97 373.016 1137.52 371.3C1138.11 370.858 1139.14 370.637 1140.61 370.637C1141.98 370.637 1143.18 371.25 1144.21 372.477C1145.24 373.703 1145.76 375.051 1145.76 376.522C1145.76 377.454 1145.56 378.263 1145.17 378.95C1143.8 381.549 1141.44 384.075 1138.11 386.527C1134.82 388.93 1130.9 390.916 1126.34 392.485C1121.78 394.005 1117.07 394.765 1112.22 394.765ZM1090.66 325.692C1090.66 323.289 1091.28 321.254 1092.5 319.586C1093.78 317.87 1095.44 316.57 1097.5 315.688C1100.84 314.266 1104.79 313.064 1109.35 312.083C1113.96 311.053 1117.63 310.489 1120.38 310.391C1131.66 310.048 1140.44 312.255 1146.72 317.012C1152.99 321.769 1156.67 329.1 1157.75 339.006C1158.09 342.096 1158.29 345.21 1158.34 348.349C1158.44 351.438 1158.49 355.067 1158.49 359.236V386.306C1158.49 389.101 1157.48 391.234 1155.47 392.706C1153.51 394.128 1150.93 394.839 1147.75 394.839C1144.56 394.839 1141.96 394.128 1139.95 392.706C1137.99 391.234 1137.01 389.101 1137.01 386.306V360.118C1137.01 359.285 1137.08 358.206 1137.23 356.882C1137.57 353.547 1137.74 350.874 1137.74 348.864C1137.74 343.959 1137.03 339.767 1135.61 336.285C1134.58 333.636 1132.59 331.748 1129.65 330.62C1126.71 329.493 1123.27 328.978 1119.35 329.076C1117.34 329.125 1114.96 329.542 1112.22 330.326C1109.47 331.111 1106.4 332.141 1103.02 333.416C1101.84 333.857 1100.69 334.078 1099.56 334.078C1097.16 334.078 1095.08 333.318 1093.31 331.797C1091.55 330.228 1090.66 328.193 1090.66 325.692Z" fill="#484848"/>
<path d="M1179.09 389.837C1178.59 391.161 1177.79 392.191 1176.66 392.926C1175.53 393.613 1174.28 393.907 1172.91 393.809C1171.14 393.711 1169.72 393.245 1168.64 392.411C1167.56 391.578 1167 390.376 1166.95 388.807C1166.95 387.777 1167.12 386.894 1167.46 386.159L1207.92 288.764C1208.36 287.735 1209.07 286.925 1210.05 286.337C1211.04 285.699 1212.11 285.381 1213.29 285.381C1213.88 285.381 1214.54 285.503 1215.28 285.749C1216.55 286.141 1217.48 286.778 1218.07 287.661C1218.71 288.495 1219.03 289.5 1219.03 290.677C1219.03 291.609 1218.81 292.639 1218.37 293.767L1179.09 389.837ZM1183.5 358.426C1183.5 356.955 1184.01 355.705 1185.04 354.675C1186.07 353.596 1187.37 353.056 1188.94 353.056H1238.23C1239.8 353.056 1241.1 353.571 1242.13 354.601C1243.16 355.631 1243.67 356.906 1243.67 358.426C1243.67 359.947 1243.16 361.222 1242.13 362.252C1241.1 363.281 1239.8 363.796 1238.23 363.796H1188.94C1187.37 363.796 1186.07 363.281 1185.04 362.252C1184.01 361.173 1183.5 359.898 1183.5 358.426ZM1208.73 293.767C1208.24 292.443 1207.99 291.339 1207.99 290.456C1207.99 289.328 1208.29 288.372 1208.88 287.588C1209.47 286.754 1210.35 286.141 1211.53 285.749C1212.26 285.503 1212.92 285.381 1213.51 285.381C1214.69 285.381 1215.77 285.699 1216.75 286.337C1217.78 286.925 1218.54 287.735 1219.03 288.764L1260.81 386.159C1261.15 387.189 1261.33 388.145 1261.33 389.028C1261.33 390.548 1260.79 391.7 1259.71 392.485C1258.63 393.27 1257.23 393.711 1255.51 393.809C1254.09 393.907 1252.79 393.613 1251.62 392.926C1250.49 392.191 1249.65 391.161 1249.11 389.837L1208.73 293.767Z" fill="#484848"/>
<path d="M1276.11 422.424C1274.25 422.424 1272.73 421.934 1271.55 420.953C1270.38 420.021 1269.79 418.673 1269.79 416.907V318.409C1269.79 316.595 1270.38 315.197 1271.55 314.216C1272.73 313.236 1274.25 312.745 1276.11 312.745C1277.93 312.745 1279.42 313.26 1280.6 314.29C1281.78 315.271 1282.37 316.644 1282.37 318.409V416.907C1282.37 418.673 1281.78 420.021 1280.6 420.953C1279.42 421.934 1277.93 422.424 1276.11 422.424ZM1277.51 366.812C1277.46 366.616 1277.44 366.322 1277.44 365.93C1277.44 364.949 1277.61 364.042 1277.95 363.208C1278.35 362.325 1278.84 361.786 1279.42 361.59C1279.72 361.491 1279.94 361.442 1280.09 361.442C1280.63 361.442 1281.14 361.639 1281.63 362.031C1282.12 362.374 1282.39 362.865 1282.44 363.502C1282.98 367.769 1284.43 371.496 1286.78 374.683C1289.13 377.822 1292.08 380.225 1295.61 381.892C1299.19 383.56 1302.99 384.393 1307.01 384.393C1311.72 384.393 1315.94 383.216 1319.66 380.862C1323.44 378.459 1326.38 375.076 1328.49 370.711C1330.6 366.346 1331.65 361.295 1331.65 355.558C1331.65 349.428 1330.6 343.935 1328.49 339.08C1326.43 334.176 1323.54 330.351 1319.81 327.605C1316.13 324.809 1311.91 323.412 1307.16 323.412C1302.79 323.412 1298.82 324.368 1295.24 326.28C1291.66 328.193 1288.74 330.866 1286.49 334.299C1284.23 337.682 1282.86 341.483 1282.37 345.7C1282.27 346.436 1281.88 347 1281.19 347.392C1280.5 347.736 1279.87 347.858 1279.28 347.76C1278.69 347.662 1278.25 347.196 1277.95 346.362C1277.66 345.529 1277.56 344.671 1277.66 343.788C1278.35 337.805 1280.11 332.484 1282.96 327.825C1285.8 323.117 1289.5 319.464 1294.06 316.865C1298.62 314.216 1303.75 312.892 1309.44 312.892C1316.06 312.892 1322.02 314.707 1327.31 318.336C1332.61 321.965 1336.75 326.992 1339.74 333.416C1342.74 339.84 1344.23 347.049 1344.23 355.043C1344.23 363.232 1342.76 370.294 1339.82 376.228C1336.92 382.113 1332.88 386.6 1327.68 389.69C1322.48 392.779 1316.52 394.349 1309.81 394.398C1303.87 394.398 1298.6 393.221 1293.99 390.867C1289.38 388.464 1285.65 385.178 1282.81 381.01C1280.01 376.841 1278.25 372.109 1277.51 366.812Z" fill="#484848"/>
<path d="M1362.99 422.424C1361.13 422.424 1359.61 421.934 1358.43 420.953C1357.25 420.021 1356.67 418.673 1356.67 416.907V318.409C1356.67 316.595 1357.25 315.197 1358.43 314.216C1359.61 313.236 1361.13 312.745 1362.99 312.745C1364.81 312.745 1366.3 313.26 1367.48 314.29C1368.66 315.271 1369.25 316.644 1369.25 318.409V416.907C1369.25 418.673 1368.66 420.021 1367.48 420.953C1366.3 421.934 1364.81 422.424 1362.99 422.424ZM1364.39 366.812C1364.34 366.616 1364.32 366.322 1364.32 365.93C1364.32 364.949 1364.49 364.042 1364.83 363.208C1365.22 362.325 1365.71 361.786 1366.3 361.59C1366.6 361.491 1366.82 361.442 1366.96 361.442C1367.5 361.442 1368.02 361.639 1368.51 362.031C1369 362.374 1369.27 362.865 1369.32 363.502C1369.86 367.769 1371.3 371.496 1373.66 374.683C1376.01 377.822 1378.96 380.225 1382.49 381.892C1386.07 383.56 1389.87 384.393 1393.89 384.393C1398.6 384.393 1402.81 383.216 1406.54 380.862C1410.32 378.459 1413.26 375.076 1415.37 370.711C1417.48 366.346 1418.53 361.295 1418.53 355.558C1418.53 349.428 1417.48 343.935 1415.37 339.08C1413.31 334.176 1410.41 330.351 1406.69 327.605C1403.01 324.809 1398.79 323.412 1394.04 323.412C1389.67 323.412 1385.7 324.368 1382.12 326.28C1378.54 328.193 1375.62 330.866 1373.36 334.299C1371.11 337.682 1369.74 341.483 1369.25 345.7C1369.15 346.436 1368.75 347 1368.07 347.392C1367.38 347.736 1366.74 347.858 1366.16 347.76C1365.57 347.662 1365.13 347.196 1364.83 346.362C1364.54 345.529 1364.44 344.671 1364.54 343.788C1365.22 337.805 1366.99 332.484 1369.83 327.825C1372.68 323.117 1376.38 319.464 1380.94 316.865C1385.5 314.216 1390.63 312.892 1396.32 312.892C1402.94 312.892 1408.89 314.707 1414.19 318.336C1419.49 321.965 1423.63 326.992 1426.62 333.416C1429.61 339.84 1431.11 347.049 1431.11 355.043C1431.11 363.232 1429.64 370.294 1426.7 376.228C1423.8 382.113 1419.76 386.6 1414.56 389.69C1409.36 392.779 1403.4 394.349 1396.68 394.398C1390.75 394.398 1385.48 393.221 1380.87 390.867C1376.26 388.464 1372.53 385.178 1369.69 381.01C1366.89 376.841 1365.13 372.109 1364.39 366.812Z" fill="#484848"/>
<path fill-rule="evenodd" clip-rule="evenodd" d="M283 493.15V127L0 391V554.477L283 676.001V497V493.15Z" fill="#7F64FD"/>
<path d="M95 507.001L155 532.512V621.501L95 595.501V507.001Z" fill="white"/>
<path d="M180 350L236.98 363V432L180 416V350Z" fill="white"/>
<path d="M307 126.501L524.448 4.50136L524.448 568.501L307 679.501L307 126.501Z" fill="#7F64FD"/>
<rect width="62.7717" height="37.663" transform="matrix(0.866025 -0.5 2.20305e-08 1 351 223.328)" fill="white"/>
<path d="M351 373.98L405.362 342.594L405.362 380.258L351 411.644L351 373.98Z" fill="white"/>
<rect width="62.7717" height="37.663" transform="matrix(0.866025 -0.5 2.20305e-08 1 351 286.1)" fill="white"/>
<rect width="62.7717" height="37.663" transform="matrix(0.866025 -0.5 2.20305e-08 1 351 436.752)" fill="white"/>
<rect width="62.7717" height="37.663" transform="matrix(0.866025 -0.5 2.20305e-08 1 427.109 179.387)" fill="white"/>
<rect width="62.7717" height="37.663" transform="matrix(0.866025 -0.5 2.20305e-08 1 427.109 330.039)" fill="white"/>
<rect width="62.7717" height="37.663" transform="matrix(0.866025 -0.5 2.20305e-08 1 427.109 242.158)" fill="white"/>
<rect width="62.7717" height="37.663" transform="matrix(0.866025 -0.5 2.20305e-08 1 427.109 392.811)" fill="white"/>
</svg>
